<?xml version="1.0" encoding="UTF-8" standalone="no"?>
<!-- Created with Inkscape (http://www.inkscape.org/) -->
<svg
   xmlns:ns="http://creativecommons.org/ns#"
   xmlns:dc="http://purl.org/dc/elements/1.1/"
   xmlns:cc="http://web.resource.org/cc/"
   xmlns:rdf="http://www.w3.org/1999/02/22-rdf-syntax-ns#"
   xmlns:svg="http://www.w3.org/2000/svg"
   xmlns="http://www.w3.org/2000/svg"
   xmlns:sodipodi="http://sodipodi.sourceforge.net/DTD/sodipodi-0.dtd"
   xmlns:inkscape="http://www.inkscape.org/namespaces/inkscape"
   width="719.16949"
   height="357.3002"
   id="svg1341"
   sodipodi:version="0.32"
   inkscape:version="0.45.1"
   sodipodi:docbase="C:\Users\Alex\Desktop"
   sodipodi:docname="gpl-v3-logo.svg"
   inkscape:output_extension="org.inkscape.output.svg.inkscape"
   version="1.0">
  <defs
     id="defs1343">
    <inkscape:perspective
       sodipodi:type="inkscape:persp3d"
       inkscape:vp_x="0 : 526.18109 : 1"
       inkscape:vp_y="0 : 1000 : 0"
       inkscape:vp_z="744.09448 : 526.18109 : 1"
       inkscape:persp3d-origin="372.04724 : 350.78739 : 1"
       id="perspective79" />
  </defs>
  <sodipodi:namedview
     id="base"
     pagecolor="#ffffff"
     bordercolor="#666666"
     borderopacity="1.0"
     inkscape:pageopacity="0.0"
     inkscape:pageshadow="2"
     inkscape:zoom="0.56729519"
     inkscape:cx="372.04724"
     inkscape:cy="244.14098"
     inkscape:document-units="px"
     inkscape:current-layer="layer1"
     inkscape:window-width="1280"
     inkscape:window-height="825"
     inkscape:window-x="0"
     inkscape:window-y="161"
     showgrid="false" />
  <metadata
     id="metadata1346">
    <rdf:RDF>
      <ns:Work
         rdf:about="">
        <dc:format>image/svg+xml</dc:format>
        <dc:type
           rdf:resource="http://purl.org/dc/dcmitype/StillImage" />
      </ns:Work>
      <cc:Work
         rdf:about="">
        <dc:format>image/svg+xml</dc:format>
        <dc:type
           rdf:resource="http://purl.org/dc/dcmitype/StillImage" />
      </cc:Work>
    </rdf:RDF>
  </metadata>
  <g
     inkscape:label="Layer 1"
     inkscape:groupmode="layer"
     id="layer1"
     transform="translate(-10.862249,-17.896606)">
    <g
       id="g3413"
       transform="translate(-1.6002455,-329.63438)">
      <g
         id="g68"
         style="fill:#000000;fill-opacity:0.94117647;fill-rule:evenodd;stroke:none;stroke-width:1pt;stroke-linecap:butt;stroke-linejoin:miter"
         transform="matrix(1.705222,0,0,1.705222,352.86817,563.90874)">
        <path
           style="fill:#000000;fill-opacity:0.94117647"
           id="path70"
           d="M 3.86,0 C 3.86,0 3.85,0 3.85,0 C 2.91,0 2.08,0.31 1.3,0.94 C 0.72,1.4 0.32,2.02 0,2.71 C 0,2.71 0.04,2.71 0.04,2.71 C 0.36,2.02 0.76,1.4 1.33,0.94 C 2.11,0.31 2.94,0.01 3.86,0 z " />
      </g>
      <path
         style="fill:#000000;fill-opacity:0.94117647;fill-rule:evenodd;stroke:none;stroke-width:1pt;stroke-linecap:butt;stroke-linejoin:miter"
         d="M 92.93948,358.4642 C 92.9395,358.46419 33.62975,617.23158 33.62975,617.23158 C 33.6468,617.23158 33.64894,617.23158 33.68304,617.23158 C 33.68304,617.23158 308.06385,617.23158 308.06385,617.23158 C 308.06386,617.23158 450.76958,617.23158 450.76958,617.23158 C 433.76851,615.74805 420.34631,609.77976 412.34882,598.90046 C 410.86529,596.88827 409.63964,594.72053 408.56535,592.45258 C 407.88328,590.78148 407.24167,589.09543 406.59368,587.39021 C 404.88844,581.9676 404.20851,575.9503 404.51544,569.53867 C 405.36806,551.66793 413.75349,530.41065 428.28198,508.15069 C 443.71423,484.49413 466.08035,459.6998 493.77314,436.69125 C 499.98013,431.53806 506.39817,426.44926 513.11675,421.50411 C 521.42116,415.39432 529.78956,409.7675 538.1622,404.50518 C 569.00965,385.08441 599.78037,371.49508 627.04687,364.59234 C 600.9911,373.09287 571.71882,387.52374 542.79826,407.1696 C 541.7581,407.87215 540.73068,408.59175 539.70754,409.30112 C 523.66141,420.41917 509.1244,432.22698 496.43756,444.15158 C 455.61453,482.53615 434.0371,522.31042 443.84212,545.61227 C 444.54128,547.21517 445.37468,548.74562 446.34667,550.19506 C 456.88492,565.69553 483.00254,568.37485 516.10089,560.05337 C 518.35178,559.49062 520.60267,558.85333 522.92177,558.18829 C 533.49415,555.13592 544.71877,551.01356 556.28017,545.93201 C 559.05966,544.70424 561.86904,543.44238 564.6997,542.09525 C 564.98958,541.95884 565.26243,541.82242 565.55231,541.66895 C 602.04404,523.53733 630.08856,502.67437 636.15915,490.13928 C 637.48923,487.41266 637.80895,485.08798 636.90518,483.26511 C 632.57394,474.48323 602.26573,480.41611 565.55231,496.32071 C 562.60228,497.59961 559.61814,498.91563 556.5999,500.31732 C 559.05542,498.03746 561.61113,495.74904 564.2201,493.49643 C 568.38085,489.91205 572.68866,486.40698 577.2757,482.94539 C 584.4547,477.50912 591.71255,472.59468 598.85743,468.23785 C 632.31386,442.99718 649.22753,419.12063 645.69773,410.26032 C 645.03268,408.59089 643.61736,407.44243 641.43467,406.74329 C 634.46029,404.52482 621.73084,407.17258 606.26448,413.51089 C 593.50944,418.74253 578.85944,426.50169 564.00696,436.15837 C 564.00696,436.15837 561.98201,437.49057 561.98201,437.49057 C 561.98203,437.49057 561.60899,437.70371 561.60899,437.70371 C 561.60901,437.70373 554.46838,442.44636 554.46838,442.44636 C 554.46836,442.44635 558.57157,434.93273 558.57157,434.93273 C 564.65922,423.78909 574.57507,412.16206 586.92087,401.36119 C 595.9756,393.4643 606.3199,386.02357 617.455,379.51303 C 621.66691,377.0473 625.8724,374.75717 630.08429,372.69215 C 634.39851,370.58449 638.71484,368.7113 642.92675,367.0436 C 655.16357,362.20425 666.84456,359.26379 677.03117,358.4642 C 676.1035,358.46419 648.41543,358.4642 648.41543,358.4642 C 648.41544,358.46419 551.96384,358.4642 551.96384,358.4642 C 551.96385,358.46419 126.67089,358.4642 126.67089,358.4642 C 126.67089,358.46419 92.93948,358.4642 92.93948,358.4642 z M 398.92019,358.83722 C 397.2491,384.34222 402.19422,421.69937 413.41458,463.17546 C 415.40967,470.55567 417.5817,478.06631 419.96902,485.66308 C 421.45258,490.35412 422.98301,494.97189 424.5518,499.518 C 423.631,500.87196 422.70376,502.21737 421.8341,503.5679 C 407.83425,525.02298 399.6513,545.29894 397.58799,562.93093 C 391.67085,543.11625 387.21598,521.41263 384.69225,498.39895 C 383.97606,491.80485 383.41546,485.28453 383.04031,478.8422 C 380.27784,432.04581 386.3868,389.625 398.92019,358.83722 z M 119.53029,392.03576 C 119.84963,392.02822 120.16443,392.03576 120.48947,392.03576 C 120.48947,392.03574 183.52938,392.03576 183.52938,392.03576 C 188.91789,392.03574 193.08502,393.04567 196.0521,395.07318 C 199.00212,397.11264 200.10841,399.75061 199.40925,402.95983 C 199.40927,402.95985 191.89562,436.90439 191.89562,436.90439 C 191.89562,436.90442 169.67446,436.90439 169.67446,436.90439 C 169.67448,436.90442 176.97494,403.86573 176.97494,403.86573 C 176.97492,403.86573 121.34209,403.86573 121.34209,403.86573 C 121.34207,403.86573 101.25244,494.66878 101.25244,494.66878 C 101.25246,494.66878 94.00525,527.54759 94.00525,527.54759 C 94.00525,527.54762 149.58482,527.54759 149.58482,527.54759 C 149.58482,527.54762 149.63811,527.33443 149.63811,527.33443 C 149.63811,527.33445 160.77533,477.03039 160.77533,477.03039 C 160.77533,477.03037 134.66413,477.03039 134.66413,477.03039 C 134.66413,477.03037 137.16867,465.68001 137.16867,465.68001 C 137.16866,465.67999 185.50105,465.68001 185.50105,465.68001 C 185.50105,465.67999 171.64612,528.45349 171.64612,528.45349 C 171.45855,529.34701 171.1303,530.15657 170.68693,530.95802 C 169.54444,533.03839 167.55146,534.82036 164.77195,536.28685 C 160.91817,538.31608 156.30552,539.32427 150.91702,539.32427 C 150.91702,539.32429 87.9304,539.32427 87.9304,539.32427 C 82.54188,539.32429 78.37476,538.31606 75.40768,536.28685 C 72.45767,534.25765 71.33433,531.66612 72.05053,528.45349 C 72.05054,528.45347 99.81366,402.95983 99.81366,402.95983 C 100.52984,399.75062 102.76371,397.11262 106.63455,395.07318 C 106.77097,394.99987 106.92444,394.98323 107.06085,394.91332 C 110.59387,393.14362 114.74022,392.14889 119.53029,392.03576 z M 218.32657,392.03576 C 218.32655,392.03574 297.67265,392.03576 297.67265,392.03576 C 302.99296,392.03574 307.175,393.04567 310.14208,395.07318 C 313.12625,397.11264 314.26874,399.75061 313.55253,402.95983 C 313.55255,402.95985 298.73842,469.88978 298.73842,469.88978 C 298.0393,473.07852 295.75215,475.68028 291.86425,477.72314 C 287.97635,479.7728 283.39995,480.81385 278.06261,480.81385 C 278.06259,480.81385 220.40481,480.81385 220.40481,480.81385 C 220.40481,480.81385 209.26758,531.0646 209.26758,531.0646 C 209.26758,531.06462 207.45578,539.32427 207.45578,539.32427 C 207.45579,539.32429 185.7142,539.32427 185.7142,539.32427 C 185.7142,539.32429 187.36613,531.86393 187.36613,531.86393 C 187.36613,531.86395 218.32657,392.03576 218.32657,392.03576 z M 327.94034,392.03576 C 327.94033,392.03574 349.68192,392.03576 349.68192,392.03576 C 349.68194,392.03574 325.06278,503.24817 325.06278,503.24817 C 325.0628,503.24819 319.68068,527.54759 319.68068,527.54759 C 319.68068,527.54762 371.68994,527.54759 371.68994,527.54759 C 372.23562,531.53613 372.87293,535.45341 373.55502,539.32427 C 373.555,539.32429 295.32797,539.32427 295.32797,539.32427 C 295.32799,539.32429 301.5094,511.40126 301.5094,511.40126 C 301.50942,511.40126 327.94034,392.03576 327.94034,392.03576 z M 237.45702,403.86573 C 237.45704,403.86573 223.01592,468.98387 223.01592,468.98387 C 223.01592,468.98385 277.21,468.98387 277.21,468.98387 C 277.20999,468.98385 291.5978,403.86573 291.5978,403.86573 C 291.59782,403.86573 237.45702,403.86573 237.45702,403.86573 z M 191.89562,549.5556 C 192.10829,549.54845 192.32086,549.5556 192.53509,549.5556 C 195.05882,549.55562 197.26281,549.99896 199.03624,550.83451 C 200.92904,551.72122 202.28256,553.03851 203.03286,554.77784 C 203.76611,556.46603 203.95794,558.38225 203.56573,560.47968 C 203.56573,560.47969 203.40588,561.27901 203.40588,561.27901 C 203.40589,561.27898 197.17116,561.27901 197.17116,561.27901 C 197.17114,561.27898 197.22445,560.53296 197.22445,560.53296 C 197.38563,559.06753 197.20396,557.91517 196.63827,557.12253 C 196.56455,557.02312 196.45774,556.8919 196.37183,556.8028 C 196.23115,556.65917 196.01985,556.495 195.83896,556.37649 C 194.96658,555.82699 193.60193,555.52387 191.84234,555.52387 C 189.50619,555.52389 187.76047,555.93099 186.56682,556.74951 C 185.40726,557.55097 184.67402,558.44621 184.43529,559.52049 C 184.19654,560.61183 184.58875,561.18521 184.8616,561.49215 C 184.8701,561.50064 184.90453,561.53592 184.91487,561.54544 C 185.26039,561.83989 186.46023,562.5302 190.1904,563.41052 C 193.56672,564.22903 195.80272,564.96441 197.06458,565.59534 C 198.97445,566.5673 200.30877,567.82704 201.00792,569.3788 C 201.70703,570.91352 201.86052,572.71037 201.43422,574.65433 C 201.00792,576.54712 200.04233,578.29285 198.60994,579.92987 C 197.19462,581.56687 195.39347,582.86284 193.22783,583.7666 C 191.07923,584.65332 188.72179,585.15209 186.30037,585.15209 C 183.23097,585.15208 180.76694,584.68742 178.84003,583.7666 C 176.82786,582.81169 175.37629,581.3047 174.52369,579.34369 C 173.70518,577.43383 173.53039,575.26607 173.9908,572.89583 C 173.9908,572.8958 174.15067,572.14978 174.15067,572.14978 C 174.15067,572.14978 180.27881,572.14978 180.27881,572.14978 C 180.27881,572.14978 180.22552,572.89583 180.22552,572.89583 C 180.07204,574.31115 180.22339,575.45365 180.59854,576.30626 C 180.95663,577.12479 181.63873,577.80259 182.73006,578.33122 C 183.8896,578.89392 185.33904,579.18382 186.99311,579.18382 C 188.47666,579.18381 189.83232,578.93443 191.04302,578.49109 C 192.23667,578.06479 193.1852,577.50205 193.86729,576.78586 C 194.53231,576.06964 194.9224,575.31298 195.09292,574.49446 C 195.26344,573.76122 195.22294,573.14096 194.93305,572.62938 C 194.60906,572.08374 193.96747,571.59985 192.9614,571.1906 C 192.9614,571.19059 187.73914,569.64524 187.73914,569.64524 C 184.82322,568.91201 182.86009,568.21286 181.71759,567.51372 C 180.16582,566.59291 179.04678,565.41203 178.467,563.9967 C 177.88723,562.59839 177.82542,561.04879 178.20057,559.36062 C 178.59277,557.55309 179.46456,555.83295 180.81168,554.29825 C 182.17588,552.74648 183.9365,551.5294 186.03393,550.72794 C 187.88836,550.03254 189.83989,549.62473 191.89562,549.5556 z M 247.84822,549.66218 C 248.18547,549.63591 248.50258,549.66218 248.86069,549.66218 C 248.8607,549.66218 252.69744,550.08848 252.69744,550.08848 C 252.69743,550.08848 253.97635,550.19506 253.97635,550.19506 C 253.97637,550.19507 252.11127,554.9377 252.11127,554.9377 C 252.11126,554.93772 251.73825,555.68374 251.73825,555.68374 C 251.73825,555.68372 248.80741,555.4173 248.80741,555.4173 C 247.942,555.4173 247.30628,555.55082 246.88903,555.8436 C 246.86132,555.86453 246.80803,555.9278 246.78245,555.95018 C 246.72655,555.99922 246.63254,556.08476 246.5693,556.16334 C 246.31271,556.49985 246.00018,557.1012 245.76998,558.18829 C 245.76996,558.18829 245.65914,558.64869 245.55683,559.0409 C 246.90396,559.04091 250.1396,559.0409 250.1396,559.0409 C 250.1396,559.04091 248.96727,564.31642 248.96727,564.31642 C 248.96727,564.31641 245.61651,564.31642 244.49107,564.31642 C 244.15001,565.85111 239.96157,584.61922 239.96157,584.61922 C 239.96155,584.6192 233.78014,584.61922 233.78014,584.61922 C 233.78012,584.6192 237.79807,566.58437 238.30964,564.31642 C 237.26943,564.31641 234.73933,564.31642 234.73933,564.31642 C 234.73933,564.31641 235.91167,559.0409 235.91167,559.0409 C 235.91168,559.04091 238.45671,559.0409 239.42868,559.0409 C 239.5992,558.30766 239.85498,557.38896 239.85498,557.38896 C 240.23014,555.68374 240.62233,554.45811 241.13389,553.6055 C 241.83306,552.42891 242.81995,551.44413 244.06476,550.72794 C 245.09003,550.13219 246.38674,549.776 247.84822,549.66218 z M 262.60904,549.92862 C 262.60902,549.92861 260.99334,557.19926 260.58409,559.0409 C 261.77773,559.04091 264.5807,559.0409 264.5807,559.0409 C 264.5807,559.04091 263.40837,564.31642 263.40837,564.31642 C 263.40835,564.31641 260.46898,564.31642 259.41175,564.31642 C 259.08774,565.78289 256.53419,577.15888 256.53419,577.15888 C 256.53421,577.15886 256.32103,578.52519 256.32103,578.91739 C 256.32131,578.93044 256.31997,578.96107 256.32103,578.97067 C 256.32187,578.9747 256.31983,579.02064 256.32103,579.02396 C 256.32267,579.02665 256.37218,579.02182 256.37431,579.02396 C 256.37431,579.02394 257.01378,579.07725 257.01378,579.07725 C 257.01378,579.07725 259.94463,578.8641 259.94463,578.8641 C 259.94463,578.8641 259.6249,583.60674 259.6249,583.60674 C 259.62492,583.60674 259.6782,584.45935 259.6782,584.45935 C 259.67818,584.45933 255.46842,584.93895 255.46842,584.93895 C 253.79732,584.93893 252.57167,584.66612 251.68496,584.08635 C 250.74711,583.47243 250.20142,582.65821 249.97974,581.63509 C 249.94563,581.4475 249.87316,581.17467 249.87316,580.78248 C 249.87316,580.01512 250.01811,578.71703 250.51262,576.46614 C 250.51264,576.46616 252.75285,566.4309 253.23032,564.31642 C 252.42889,564.31641 250.29947,564.31642 250.29947,564.31642 C 250.29949,564.31641 251.4718,559.0409 251.4718,559.0409 C 251.47178,559.04091 253.55004,559.0409 254.40266,559.0409 C 254.67547,557.81315 255.62828,553.6055 255.62828,553.6055 C 255.62828,553.60552 260.58409,550.99438 260.58409,550.99438 C 260.58408,550.9944 262.60904,549.92862 262.60904,549.92862 z M 66.24211,550.14177 C 66.24213,550.14177 90.22179,550.14177 90.22179,550.14177 C 90.22179,550.14177 88.88959,556.11005 88.88959,556.11005 C 88.88959,556.11007 72.89248,556.11005 71.35778,556.11005 C 71.08496,557.32078 69.99147,562.22327 69.59927,563.9967 C 71.81607,563.9967 84.7864,563.9967 84.7864,563.9967 C 84.7864,563.9967 83.45419,569.96496 83.45419,569.96496 C 83.45418,569.96496 69.80177,569.96496 68.26706,569.96496 C 67.94307,571.44851 65.01648,584.61922 65.01648,584.61922 C 65.0165,584.6192 58.56862,584.61922 58.56862,584.61922 C 58.56863,584.6192 66.24211,550.14177 66.24211,550.14177 z M 98.37487,558.56131 C 98.61554,558.53175 98.87845,558.56131 99.12091,558.56131 C 100.65561,558.56131 102.07308,559.02811 103.43726,560.00008 C 103.43726,560.0001 104.28986,560.58625 104.28986,560.58625 C 104.28986,560.58625 100.986,566.02165 100.986,566.02165 C 100.986,566.02163 100.08011,565.38219 100.08011,565.38219 C 99.41507,564.9559 98.69888,564.74273 97.94858,564.74273 C 97.30059,564.74275 96.69737,564.97293 96.08349,565.38219 C 95.43552,565.80849 94.89409,566.37334 94.48485,567.1407 C 93.76865,568.45374 93.24429,569.92447 92.8862,571.51033 C 92.8862,571.51034 90.00864,584.61922 90.00864,584.61922 C 90.00864,584.6192 83.82721,584.61922 83.82721,584.61922 C 83.82721,584.6192 89.52905,559.0409 89.52905,559.0409 C 89.52907,559.04091 95.28417,559.0409 95.28417,559.0409 C 95.28417,559.04091 95.08593,559.81678 95.01772,560.10666 C 95.29056,559.90205 95.57831,559.62067 95.81705,559.4672 C 96.64302,558.9743 97.51542,558.66685 98.37487,558.56131 z M 116.70601,558.56131 C 117.0782,558.53316 117.4446,558.56131 117.82507,558.56131 C 121.30373,558.56131 123.93615,559.78053 125.65842,562.1849 C 126.7327,563.73664 127.31037,565.65502 127.31037,567.94002 C 127.31037,569.20187 127.15476,570.55967 126.83078,572.04321 C 126.83078,572.04321 126.35117,573.9083 126.35117,573.9083 C 126.35117,573.90828 110.71856,573.9083 108.97923,573.9083 C 108.94512,574.26638 108.92594,574.65007 108.92594,574.97406 C 108.92594,576.30415 109.19877,577.35071 109.77855,578.11807 C 110.05405,578.4932 110.37345,578.83106 110.73774,579.07725 C 111.42452,579.52514 112.31108,579.77 113.34886,579.77 C 114.61074,579.76998 115.71911,579.42255 116.7593,578.75752 C 117.74835,578.12659 118.69474,577.11838 119.53029,575.7201 C 119.53029,575.72007 126.13802,575.7201 126.13802,575.7201 C 126.13802,575.72007 125.55186,576.99901 125.55186,576.99901 C 124.28999,579.55686 122.52935,581.55195 120.32961,582.96729 C 118.12988,584.38262 115.5017,585.15209 112.60282,585.15209 C 108.83428,585.15208 106.02919,583.93287 104.28986,581.52851 C 102.5676,579.17528 102.19671,575.92258 103.11753,571.83005 C 104.03836,567.66932 105.87573,564.34414 108.55292,562.02503 C 110.9525,559.94441 113.67537,558.79035 116.70601,558.56131 z M 144.46916,558.56131 C 144.84134,558.53316 145.20773,558.56131 145.5882,558.56131 C 149.06687,558.56131 151.6993,559.78053 153.42157,562.1849 C 154.49586,563.73664 155.0735,565.65502 155.0735,567.94002 C 155.0735,569.18482 154.9179,570.52343 154.5939,571.98992 C 154.5939,571.98994 154.11432,573.9083 154.11432,573.9083 C 154.11432,573.90828 138.48169,573.9083 136.74237,573.9083 C 136.7253,574.147 136.70613,574.36232 136.68908,574.60105 C 136.67629,574.69057 136.69468,574.82646 136.68908,574.92077 C 136.68858,574.93615 136.68908,574.95914 136.68908,574.97406 C 136.68908,575.22986 136.72532,575.48136 136.74237,575.7201 C 136.8276,576.69206 137.08129,577.50419 137.54169,578.11807 C 137.62936,578.23743 137.71177,578.38477 137.80813,578.49109 C 138.58914,579.32663 139.69453,579.77 141.112,579.77 C 142.37388,579.76998 143.49931,579.42255 144.52245,578.75752 C 145.51149,578.12659 146.45787,577.11838 147.29343,575.7201 C 147.29343,575.72007 153.95445,575.7201 153.95445,575.7201 C 153.95444,575.72007 153.31499,576.99901 153.31499,576.99901 C 152.05313,579.55686 150.29249,581.55195 148.09275,582.96729 C 145.89301,584.38262 143.26484,585.15209 140.36597,585.15209 C 136.59744,585.15208 133.79234,583.93287 132.05301,581.52851 C 130.92756,579.99379 130.40107,578.0392 130.40107,575.7201 C 130.40107,575.36198 130.42025,574.97619 130.45436,574.60105 C 130.52259,573.71434 130.65899,572.81909 130.88067,571.83005 C 131.80151,567.68637 133.58558,564.34414 136.26277,562.02503 C 138.66234,559.94441 141.43852,558.79035 144.46916,558.56131 z M 220.08507,558.56131 C 220.46591,558.53202 220.81619,558.56131 221.20412,558.56131 C 224.75099,558.56131 227.47722,559.76135 229.25064,562.13161 C 231.00704,564.50184 231.43333,567.69915 230.52955,571.72347 C 229.83042,574.8611 228.82008,577.39547 227.43885,579.23712 C 226.05759,581.07877 224.29697,582.58361 222.21659,583.60674 C 220.15331,584.62988 217.96846,585.15209 215.76873,585.15209 C 212.15366,585.15208 209.46154,583.91581 207.72221,581.52851 C 206.59675,580.01087 206.01699,578.05625 206.01699,575.7201 C 206.01701,574.45823 206.15555,573.1175 206.49659,571.61691 C 207.51974,567.0469 209.60861,563.56613 212.67802,561.33229 C 214.93103,559.70595 217.41916,558.76623 220.08507,558.56131 z M 313.7124,558.56131 C 314.162,558.53356 314.57833,558.56131 315.0446,558.56131 C 317.19319,558.56131 318.88135,558.77871 320.16027,559.30733 C 321.52445,559.85302 322.49216,560.62462 323.03783,561.54544 C 323.56647,562.41507 323.83716,563.483 323.83716,564.79601 C 323.83717,564.79603 323.19768,568.68605 323.19768,568.68605 C 323.19771,568.68605 322.02536,573.96159 322.02536,573.96159 C 321.01925,578.46335 320.7976,580.15154 320.74643,580.78248 C 320.69528,581.6351 320.77414,582.46638 321.01288,583.23373 C 321.0129,583.23371 321.43918,584.61922 321.43918,584.61922 C 321.4392,584.6192 315.15118,584.61922 315.15118,584.61922 C 315.15116,584.6192 314.88473,583.81989 314.88473,583.81989 C 314.78242,583.44477 314.81226,582.96729 314.77816,582.54098 C 313.58451,583.27423 312.38872,583.92434 311.31443,584.29949 C 309.72859,584.84518 308.08304,585.15209 306.41192,585.15209 C 303.51306,585.15208 301.3666,584.39755 300.07062,582.91399 C 299.0816,581.82266 298.63185,580.48832 298.63185,578.97067 C 298.63183,578.3909 298.70858,577.7898 298.84499,577.15888 C 299.13487,575.86291 299.66137,574.66285 300.49693,573.58856 C 301.31544,572.5313 302.28316,571.66167 303.37449,571.03074 C 304.43175,570.39982 305.61047,569.95219 306.83823,569.64524 C 306.83821,569.64524 310.62169,569.00578 310.62169,569.00578 C 313.53763,568.66472 315.7139,568.24057 317.28271,567.78016 C 317.31683,567.60964 317.38928,567.40714 317.38928,567.40714 C 317.63654,566.30996 317.6056,565.48526 317.33599,565.06246 C 317.31615,565.03519 317.25181,564.97932 317.22942,564.95588 C 317.17186,564.89453 317.08339,564.79809 317.01626,564.74273 C 316.37491,564.2352 315.2812,563.9967 313.81898,563.9967 C 312.16491,563.9967 310.94142,564.26741 310.0888,564.79601 C 309.25325,565.32464 308.47949,566.29235 307.79741,567.67357 C 307.7974,567.67356 301.34954,567.67357 301.34954,567.67357 C 301.34956,567.67356 301.93571,566.39466 301.93571,566.39466 C 302.70304,564.62121 303.61749,563.15048 304.75999,562.02503 C 305.90249,560.89956 307.44571,560.02779 309.23619,559.41392 C 310.60835,558.96095 312.10669,558.66038 313.7124,558.56131 z M 340.72951,558.56131 C 340.96997,558.53175 341.23307,558.56131 341.47554,558.56131 C 343.02727,558.56131 344.48099,559.02811 345.84517,560.00008 C 345.84519,560.0001 346.64449,560.58625 346.64449,560.58625 C 346.6445,560.58625 343.34063,566.02165 343.34063,566.02165 C 343.34064,566.02163 342.43473,565.38219 342.43473,565.38219 C 341.7697,564.9559 341.08972,564.74273 340.35649,564.74273 C 339.70848,564.74275 339.06905,564.97293 338.4381,565.38219 C 337.79013,565.80849 337.31906,566.37334 336.89276,567.1407 C 336.1936,568.45374 335.6522,569.92447 335.29411,571.51033 C 335.29409,571.51034 332.36326,584.61922 332.36326,584.61922 C 332.36328,584.6192 326.18184,584.61922 326.18184,584.61922 C 326.18184,584.6192 331.88366,559.0409 331.88366,559.0409 C 331.88365,559.04091 337.63878,559.0409 337.63878,559.0409 C 337.63878,559.04091 337.49384,559.81678 337.42564,560.10666 C 337.69846,559.90205 337.96917,559.62067 338.22496,559.4672 C 339.03759,558.9743 339.87067,558.66685 340.72951,558.56131 z M 359.00734,558.56131 C 359.37919,558.53316 359.74593,558.56131 360.1264,558.56131 C 363.60506,558.56131 366.25453,559.78053 367.95977,562.1849 C 369.05112,563.73664 369.6117,565.65502 369.6117,567.94002 C 369.61168,569.20187 369.4028,570.55967 369.07881,572.04321 C 369.07881,572.04321 368.65251,573.9083 368.65251,573.9083 C 368.6525,573.90828 353.00283,573.9083 351.28057,573.9083 C 351.24646,574.26638 351.17398,574.65007 351.17398,574.97406 C 351.17398,576.30415 351.46387,577.35071 352.0266,578.11807 C 352.11426,578.23743 352.2496,578.38477 352.34632,578.49109 C 352.40234,578.55076 352.50044,578.64882 352.55948,578.70423 C 353.32183,579.39725 354.35929,579.77 355.65018,579.77 C 356.91207,579.76998 358.02045,579.42255 359.06063,578.75752 C 360.04968,578.12659 360.97902,577.11838 361.83162,575.7201 C 361.8316,575.72007 368.49264,575.7201 368.49264,575.7201 C 368.49264,575.72007 367.85318,576.99901 367.85318,576.99901 C 366.59131,579.55686 364.81363,581.55195 362.63094,582.96729 C 360.41417,584.38262 357.82009,585.15209 354.90415,585.15209 C 351.13564,585.15208 348.38381,583.93287 346.64449,581.52851 C 344.92219,579.17528 344.51509,575.92258 345.41886,571.83005 C 346.33967,567.66932 348.12377,564.34414 350.80097,562.02503 C 353.21572,559.94441 355.97949,558.79035 359.00734,558.56131 z M 265.69974,559.0409 C 265.69976,559.04091 272.04105,559.0409 272.04105,559.0409 C 272.04107,559.04091 272.82331,574.21951 272.84036,574.44117 C 273.09614,573.89761 273.2946,573.4403 273.31997,573.37542 C 273.31998,573.37543 280.30071,559.0409 280.30071,559.0409 C 280.30073,559.04091 286.10912,559.0409 286.10912,559.0409 C 286.10911,559.04091 286.642,574.03618 286.642,574.12144 C 286.81255,573.81453 294.58194,559.0409 294.58194,559.0409 C 294.58192,559.04091 300.86995,559.0409 300.86995,559.0409 C 300.86994,559.04091 287.01502,584.61922 287.01502,584.61922 C 287.01504,584.6192 281.31319,584.61922 281.31319,584.61922 C 281.31319,584.6192 280.76113,570.74938 280.72702,569.96496 C 278.37379,574.79076 273.58639,584.61922 273.58639,584.61922 C 273.58639,584.6192 267.72471,584.61922 267.72471,584.61922 C 267.72471,584.6192 265.69974,559.0409 265.69974,559.0409 z M 116.81259,563.89012 C 115.34366,563.95214 114.00964,564.48161 112.7627,565.48876 C 111.77368,566.27317 111.10649,567.3496 110.57787,568.52619 C 110.57787,568.52621 121.07564,568.52619 121.07564,568.52619 C 121.09271,568.33863 121.12893,568.11055 121.12893,567.94002 C 121.12891,566.96807 120.95627,566.21349 120.64934,565.70192 C 119.89906,564.47415 118.78639,563.89012 117.13232,563.89012 C 117.03322,563.89012 116.91052,563.886 116.81259,563.89012 z M 144.57572,563.89012 C 143.1068,563.95214 141.77277,564.48161 140.52582,565.48876 C 139.53678,566.27317 138.88669,567.3496 138.34102,568.52619 C 138.34102,568.52621 148.83878,568.52619 148.83878,568.52619 C 148.85582,568.33863 148.89207,568.11055 148.89207,567.94002 C 148.89206,566.96807 148.73647,566.21349 148.41247,565.70192 C 148.26353,565.45253 148.06204,565.20453 147.87959,565.00918 C 147.1676,564.27346 146.18769,563.89012 144.89546,563.89012 C 144.79635,563.89012 144.67366,563.886 144.57572,563.89012 z M 359.32708,563.89012 C 357.81652,563.93665 356.40583,564.44806 355.11731,565.48876 C 354.14533,566.27317 353.47816,567.3496 352.93249,568.52619 C 352.93251,568.52621 363.37698,568.52619 363.37698,568.52619 C 363.39401,568.33863 363.43027,568.11055 363.43027,567.94002 C 363.43026,566.96807 363.27467,566.21349 362.95067,565.70192 C 362.21743,564.4912 361.08771,563.90718 359.43365,563.89012 C 359.38463,563.89065 359.37581,563.88862 359.32708,563.89012 z M 219.71206,563.9967 C 218.30243,564.16409 216.9917,564.80721 215.76873,565.91507 C 214.30225,567.24516 213.23861,569.33404 212.62474,572.0965 C 212.36895,573.25605 212.25171,574.24721 212.25171,575.13392 C 212.25173,576.34462 212.48404,577.29529 212.94446,578.01148 C 213.06703,578.19532 213.22962,578.38959 213.37077,578.54437 C 214.12881,579.34925 215.18736,579.77 216.51477,579.77 C 218.23703,579.76998 219.75469,579.12841 221.20412,577.79833 C 222.67064,576.45119 223.71719,574.34099 224.34812,571.51033 C 224.92792,568.91838 224.8469,566.98297 224.0284,565.75521 C 223.244,564.56155 222.09724,563.9967 220.51139,563.9967 C 220.24228,563.9967 219.97309,563.96569 219.71206,563.9967 z M 316.00379,573.32213 C 314.55438,573.71431 312.93012,574.04471 310.78155,574.33461 C 309.17866,574.57335 308.03614,574.82485 307.3711,575.08064 C 306.79134,575.31936 306.32452,575.64975 305.93232,576.09312 C 305.55716,576.51939 305.30566,576.96704 305.1863,577.47861 C 305.15221,577.68325 305.133,577.89425 305.133,578.06478 C 305.133,578.07862 305.13269,578.10436 305.133,578.11807 C 305.13479,578.15865 305.12855,578.23877 305.133,578.27792 C 305.14368,578.35529 305.16517,578.47232 305.1863,578.54437 C 305.19392,578.5681 305.23081,578.62776 305.23957,578.65094 C 305.25823,578.69678 305.26972,578.76705 305.29286,578.81081 C 305.31713,578.85407 305.37076,578.9293 305.39944,578.97067 C 305.44408,579.03204 305.50494,579.12627 305.55931,579.18382 C 305.98562,579.66128 306.83609,579.87657 308.06385,579.87657 C 309.411,579.87658 310.70695,579.62079 311.9006,579.02396 C 313.07722,578.44419 314.02573,577.57878 314.72487,576.5727 C 315.23646,575.8565 315.6457,574.7545 316.00379,573.32213 z "
         id="path74" />
      <g
         id="g80"
         style="fill:#000000;fill-opacity:0.94117647;fill-rule:evenodd;stroke:none;stroke-width:1pt;stroke-linecap:butt;stroke-linejoin:miter"
         transform="matrix(1.705222,0,0,1.705222,359.45027,563.90874)">
        <path
           style="fill:#000000;fill-opacity:0.94117647"
           id="path82"
           d="M 0.03,0 C 0.02,0 0.01,0 0,0 C 0.97,0.01 1.61,0.34 2.04,1.05 C 2.23,1.35 2.33,1.8 2.33,2.37 C 2.33,2.47 2.31,2.6 2.3,2.71 C 2.3,2.71 2.34,2.71 2.34,2.71 C 2.34,2.6 2.36,2.47 2.36,2.37 C 2.36,1.8 2.27,1.35 2.08,1.05 C 1.65,0.33 1,0 0.03,0 z " />
      </g>
      <g
         style="fill:#000000;fill-opacity:0.94117647"
         id="g4966"
         transform="matrix(1.705222,0,0,1.705222,-200.90733,-129.69426)">
        <g
           transform="translate(125.1273,453.3934)"
           style="fill:#000000;fill-opacity:0.94117647;fill-rule:evenodd;stroke:none;stroke-width:1pt;stroke-linecap:butt;stroke-linejoin:miter"
           id="g84">
          <path
             style="fill:#000000;fill-opacity:0.94117647"
             d="M 0,36 C 0,36 7.46,36 7.46,36 C 7.46,36 10.81,22 10.81,22 C 10.81,22 22.93,22 22.93,22 C 22.93,22 24.49,16 24.49,16 C 24.49,16 12.32,16 12.32,16 C 12.32,16 14.34,7 14.34,7 C 14.34,7 27.29,7 27.29,7 C 27.29,7 28.85,0 28.85,0 C 28.85,0 8.4,0 8.4,0 C 8.4,0 0,36 0,36 z "
             id="path86" />
        </g>
        <g
           transform="translate(151.0773,463.3934)"
           style="fill:#000000;fill-opacity:0.94117647;fill-rule:evenodd;stroke:none;stroke-width:1pt;stroke-linecap:butt;stroke-linejoin:miter"
           id="g88">
          <path
             style="fill:#000000;fill-opacity:0.94117647"
             d="M 7.51,26 C 7.51,26 9.75,16.6 9.75,16.6 C 10.93,11.51 13.42,7 18.13,7 C 18.55,7 18.96,7.21 19.27,7.26 C 19.27,7.26 21.09,0.05 21.09,0.05 C 20.67,0.05 20.21,0 19.69,0 C 16.22,0 13.31,2.44 11.37,5.94 C 11.37,5.94 11.17,5.94 11.17,5.94 C 11.46,4.23 11.71,2.61 11.9,1 C 11.9,1 5.47,1 5.47,1 C 5.1,3.08 4.53,7.15 3.66,10.82 C 3.66,10.82 0,26 0,26 C 0,26 7.51,26 7.51,26 z "
             id="path90" />
        </g>
        <g
           transform="translate(171.7073,463.3934)"
           style="fill:#000000;fill-opacity:0.94117647;fill-rule:evenodd;stroke:none;stroke-width:1pt;stroke-linecap:butt;stroke-linejoin:miter"
           id="g92">
          <path
             style="fill:#000000;fill-opacity:0.94117647"
             d="M 20.06,19.25 C 17.99,20.26 15.63,20 12.88,20 C 10.71,20 9.03,19.62 8.11,18.88 C 7.63,18.07 7.43,16.81 7.47,16 C 17.6,16.27 23.99,13.93 24.31,7.53 C 24.55,2.7 21.02,0 15.89,0 C 6.73,0 0.73,8.08 0.34,15.86 C 0,22.65 3.52,26 10.78,26 C 13.57,26 17.27,25.68 20.3,24.77 C 20.3,24.77 20.06,19.25 20.06,19.25 z M 17.32,7.53 C 17.2,9.91 14.26,10.05 8.47,10 C 9.1,7.91 11.22,6 14.69,6 C 16.4,6 17.38,6.65 17.32,7.53 z "
             id="path94" />
        </g>
        <g
           transform="translate(198.2273,463.3934)"
           style="fill:#000000;fill-opacity:0.94117647;fill-rule:evenodd;stroke:none;stroke-width:1pt;stroke-linecap:butt;stroke-linejoin:miter"
           id="g96">
          <path
             style="fill:#000000;fill-opacity:0.94117647"
             d="M 20.05,19.25 C 17.98,20.26 15.62,20 12.88,20 C 10.7,20 9.03,19.62 8.11,18.88 C 7.63,18.07 7.42,16.81 7.46,16 C 17.6,16.27 23.98,13.93 24.31,7.53 C 24.55,2.7 21.02,0 15.89,0 C 6.72,0 0.72,8.08 0.33,15.86 C 0,22.65 3.52,26 10.77,26 C 13.57,26 17.27,25.68 20.3,24.77 C 20.3,24.77 20.05,19.25 20.05,19.25 z M 17.32,7.53 C 17.2,9.91 14.26,10.05 8.46,10 C 9.1,7.91 11.21,6 14.68,6 C 16.39,6 17.38,6.65 17.32,7.53 z "
             id="path98" />
        </g>
        <g
           transform="translate(234.1373,463.3934)"
           style="fill:#000000;fill-opacity:0.94117647;fill-rule:evenodd;stroke:none;stroke-width:1pt;stroke-linecap:butt;stroke-linejoin:miter"
           id="g100">
          <path
             style="fill:#000000;fill-opacity:0.94117647"
             d="M 22.74,26 C 22.8,22.83 23.56,17.85 24.35,14.58 C 24.35,14.58 27.56,1 27.56,1 C 25.52,0.31 22.34,0 19.28,0 C 6.86,0 0.7,9.2 0.27,17.82 C 0,23.23 2.93,26 7.49,26 C 10.44,26 13.77,24.57 16.36,20.27 C 16.36,20.27 16.47,20.27 16.47,20.27 C 16.27,22.34 16.03,24.35 15.9,26 C 15.9,26 22.74,26 22.74,26 z M 17.61,11.72 C 16.15,18.08 13.17,20 10.95,20 C 8.88,20 7.98,18.53 8.1,16.39 C 8.34,11.56 12.16,6 16.98,6 C 17.76,6 18.37,5.86 18.94,5.72 C 18.94,5.72 17.61,11.72 17.61,11.72 z "
             id="path102" />
        </g>
        <g
           transform="translate(261.7673,463.3934)"
           style="fill:#000000;fill-opacity:0.94117647;fill-rule:evenodd;stroke:none;stroke-width:1pt;stroke-linecap:butt;stroke-linejoin:miter"
           id="g104">
          <path
             style="fill:#000000;fill-opacity:0.94117647"
             d="M 0,24.82 C 1.44,25.94 4.46,25.95 7.61,26 C 14.34,26.05 19.42,23.11 19.72,17.71 C 19.89,14.11 17.1,11.98 14.37,10.55 C 12.4,9.6 11.41,8.69 11.46,7.63 C 11.53,6.2 12.87,6 14.84,6 C 17.06,6 18.84,6.27 19.86,6.47 C 19.86,6.47 21.88,1.05 21.88,1.05 C 20.73,0.36 18.43,0 15.48,0 C 8.95,0 4.17,3.45 3.9,8.69 C 3.74,11.93 6.07,14.11 8.89,15.59 C 11.17,16.76 11.95,17.66 11.89,18.93 C 11.82,20.21 10.68,20 8.61,20 C 6.18,20 3.49,19.68 2.07,19.46 C 2.07,19.46 0,24.82 0,24.82 z "
             id="path106" />
        </g>
        <g
           transform="translate(294.2173,452.3934)"
           style="fill:#000000;fill-opacity:0.94117647;fill-rule:evenodd;stroke:none;stroke-width:1pt;stroke-linecap:butt;stroke-linejoin:miter"
           id="g108">
          <path
             style="fill:#000000;fill-opacity:0.94117647"
             d="M 7.45,37 C 7.45,37 13.5,12 13.5,12 C 13.5,12 6.09,12 6.09,12 C 6.09,12 0,37 0,37 C 0,37 7.45,37 7.45,37 z M 10.92,9 C 13.46,9 15.72,6.9 15.86,3.3 C 15.98,0.86 14.4,0 12.07,0 C 9.64,0 7.42,1.58 7.29,3.94 C 7.17,6.32 8.75,9 10.92,9 z "
             id="path110" />
        </g>
        <g
           transform="translate(308.5073,464.0834)"
           style="fill:#000000;fill-opacity:0.94117647;fill-rule:evenodd;stroke:none;stroke-width:1pt;stroke-linecap:butt;stroke-linejoin:miter"
           id="g112">
          <path
             style="fill:#000000;fill-opacity:0.94117647"
             d="M 7.46,25.31 C 7.46,25.31 10.1,14.05 10.1,14.05 C 11.47,8.32 14.42,6.31 16.85,6.31 C 18.77,6.31 19.33,7.13 19.24,8.32 C 19.19,9.28 19.04,10.29 18.84,11.19 C 18.84,11.19 15.48,25.31 15.48,25.31 C 15.48,25.31 22.94,25.31 22.94,25.31 C 22.94,25.31 26.48,10.5 26.48,10.5 C 26.75,9.22 27.05,7.31 27.11,6.15 C 27.33,1.64 25.08,0 20.94,0 C 17.62,0 14.39,1.54 11.84,4.88 C 11.84,4.88 11.74,4.88 11.74,4.88 C 11.74,4.88 12.42,0.31 12.42,0.31 C 12.42,0.31 5.84,0.31 5.84,0.31 C 5.41,2.45 4.86,5.04 4.08,8.06 C 4.08,8.06 0,25.31 0,25.31 C 0,25.31 7.46,25.31 7.46,25.31 z "
             id="path114" />
        </g>
        <g
           transform="translate(348.0673,453.3934)"
           style="fill:#000000;fill-opacity:0.94117647;fill-rule:evenodd;stroke:none;stroke-width:1pt;stroke-linecap:butt;stroke-linejoin:miter"
           id="g116">
          <path
             style="fill:#000000;fill-opacity:0.94117647"
             d="M 0,36 C 0,36 7.46,36 7.46,36 C 7.46,36 10.82,22 10.82,22 C 10.82,22 22.93,22 22.93,22 C 22.93,22 24.49,16 24.49,16 C 24.49,16 12.32,16 12.32,16 C 12.32,16 14.34,7 14.34,7 C 14.34,7 27.29,7 27.29,7 C 27.29,7 28.85,0 28.85,0 C 28.85,0 8.4,0 8.4,0 C 8.4,0 0,36 0,36 z "
             id="path118" />
        </g>
        <g
           transform="translate(374.0173,463.3934)"
           style="fill:#000000;fill-opacity:0.94117647;fill-rule:evenodd;stroke:none;stroke-width:1pt;stroke-linecap:butt;stroke-linejoin:miter"
           id="g120">
          <path
             style="fill:#000000;fill-opacity:0.94117647"
             d="M 7.51,26 C 7.51,26 9.75,16.6 9.75,16.6 C 10.93,11.51 13.42,7 18.13,7 C 18.55,7 18.96,7.21 19.27,7.26 C 19.27,7.26 21.09,0.05 21.09,0.05 C 20.67,0.05 20.21,0 19.69,0 C 16.22,0 13.31,2.44 11.37,5.94 C 11.37,5.94 11.17,5.94 11.17,5.94 C 11.46,4.23 11.71,2.61 11.9,1 C 11.9,1 5.47,1 5.47,1 C 5.11,3.08 4.53,7.15 3.66,10.82 C 3.66,10.82 0,26 0,26 C 0,26 7.51,26 7.51,26 z "
             id="path122" />
        </g>
        <g
           transform="translate(394.6473,463.3934)"
           style="fill:#000000;fill-opacity:0.94117647;fill-rule:evenodd;stroke:none;stroke-width:1pt;stroke-linecap:butt;stroke-linejoin:miter"
           id="g124">
          <path
             style="fill:#000000;fill-opacity:0.94117647"
             d="M 20.06,19.25 C 17.99,20.26 15.63,20 12.88,20 C 10.71,20 9.03,19.62 8.11,18.88 C 7.63,18.07 7.43,16.81 7.47,16 C 17.6,16.27 23.99,13.93 24.31,7.53 C 24.55,2.7 21.02,0 15.89,0 C 6.73,0 0.73,8.08 0.34,15.86 C 0,22.65 3.53,26 10.78,26 C 13.57,26 17.28,25.68 20.3,24.77 C 20.3,24.77 20.06,19.25 20.06,19.25 z M 17.32,7.53 C 17.2,9.91 14.26,10.05 8.47,10 C 9.1,7.91 11.22,6 14.69,6 C 16.4,6 17.38,6.65 17.32,7.53 z "
             id="path126" />
        </g>
        <g
           transform="translate(421.1673,463.3934)"
           style="fill:#000000;fill-opacity:0.94117647;fill-rule:evenodd;stroke:none;stroke-width:1pt;stroke-linecap:butt;stroke-linejoin:miter"
           id="g128">
          <path
             style="fill:#000000;fill-opacity:0.94117647"
             d="M 20.05,19.25 C 17.98,20.26 15.62,20 12.88,20 C 10.7,20 9.03,19.62 8.11,18.88 C 7.63,18.07 7.42,16.81 7.46,16 C 17.6,16.27 23.98,13.93 24.31,7.53 C 24.55,2.7 21.02,0 15.89,0 C 6.72,0 0.72,8.08 0.33,15.86 C 0,22.65 3.52,26 10.77,26 C 13.57,26 17.27,25.68 20.3,24.77 C 20.3,24.77 20.05,19.25 20.05,19.25 z M 17.32,7.53 C 17.2,9.91 14.26,10.05 8.46,10 C 9.1,7.91 11.21,6 14.68,6 C 16.39,6 17.38,6.65 17.32,7.53 z "
             id="path130" />
        </g>
        <g
           transform="translate(447.5473,452.3934)"
           style="fill:#000000;fill-opacity:0.94117647;fill-rule:evenodd;stroke:none;stroke-width:1pt;stroke-linecap:butt;stroke-linejoin:miter"
           id="g132">
          <path
             style="fill:#000000;fill-opacity:0.94117647"
             d="M 23.31,0 C 23.31,0 20.5,11.36 20.5,11.36 C 19.48,10.94 18.15,11 17.11,11 C 7.53,11 0.75,19.2 0.3,28.08 C 0,34.34 3.34,37 7.64,37 C 10.65,37 13.82,35.67 16.22,32.23 C 16.22,32.23 16.32,32.23 16.32,32.23 C 16.32,32.23 15.75,37 15.75,37 C 15.75,37 22.53,37 22.53,37 C 22.84,34 23.49,30.43 24.22,27.17 C 24.22,27.17 30.71,0 30.71,0 C 30.71,0 23.31,0 23.31,0 z M 17.47,24.42 C 16.3,29.35 13.54,31 11.36,31 C 9.19,31 7.98,29.49 8.13,26.8 C 8.38,21.82 11.8,17 16.25,17 C 17.5,17 18.57,17.19 19.16,17.47 C 19.16,17.47 17.47,24.42 17.47,24.42 z "
             id="path134" />
        </g>
        <g
           transform="translate(477.2573,463.3934)"
           style="fill:#000000;fill-opacity:0.94117647;fill-rule:evenodd;stroke:none;stroke-width:1pt;stroke-linecap:butt;stroke-linejoin:miter"
           id="g136">
          <path
             style="fill:#000000;fill-opacity:0.94117647"
             d="M 10.61,26 C 19.31,26 26.02,19.41 26.49,10.44 C 26.78,4.5 23.08,0 16.25,0 C 7.23,0 0.76,7.3 0.31,16.12 C 0,22.54 4.14,26 10.61,26 z M 11.78,20 C 9.24,20 7.84,18.38 7.99,15.96 C 8.19,11.93 10.68,6 14.97,6 C 17.93,6 18.84,8.27 18.72,10.5 C 18.5,14.9 15.82,20 11.78,20 z "
             id="path138" />
        </g>
        <g
           transform="translate(505.8173,463.3934)"
           style="fill:#000000;fill-opacity:0.94117647;fill-rule:evenodd;stroke:none;stroke-width:1pt;stroke-linecap:butt;stroke-linejoin:miter"
           id="g140">
          <path
             style="fill:#000000;fill-opacity:0.94117647"
             d="M 7.2,26 C 7.2,26 9.9,14.58 9.9,14.58 C 11.03,9.49 13.85,6 16.38,6 C 18.2,6 18.7,7.33 18.61,9.07 C 18.56,9.97 18.36,10.98 18.15,11.98 C 18.15,11.98 14.81,26 14.81,26 C 14.81,26 22.01,26 22.01,26 C 22.01,26 24.71,14.53 24.71,14.53 C 25.95,9.28 28.61,6 31.09,6 C 32.8,6 33.51,7.22 33.43,8.96 C 33.38,9.97 33.17,11.08 32.91,12.09 C 32.91,12.09 29.67,26 29.67,26 C 29.67,26 36.92,26 36.92,26 C 36.92,26 40.41,11.19 40.41,11.19 C 40.68,9.86 40.99,7.79 41.04,6.73 C 41.26,2.33 39.11,0 35.23,0 C 31.91,0 28.68,1.5 26.23,4.66 C 26.14,2.38 24.51,0 20.47,0 C 17.2,0 14.08,1.48 11.58,4.83 C 11.58,4.83 11.48,4.83 11.48,4.83 C 11.48,4.83 12.15,1 12.15,1 C 12.15,1 5.73,1 5.73,1 C 5.31,3.14 4.8,5.73 4.02,8.75 C 4.02,8.75 0,26 0,26 C 0,26 7.2,26 7.2,26 z "
             id="path142" />
        </g>
      </g>
      <path
         style="fill:none;fill-opacity:0.94117647;fill-rule:evenodd;stroke:#000000;stroke-width:8.52610779;stroke-linecap:butt;stroke-linejoin:miter;stroke-miterlimit:4;stroke-opacity:1"
         id="path2592"
         d="M 402.97747,590.4172 C 403.66968,592.19682 404.36192,593.97353 405.08297,595.7113 C 406.19343,598.07207 407.47693,600.3319 409.02001,602.44175 C 417.35558,613.77261 431.31547,619.9767 449.03932,621.52122 C 449.03932,621.52122 468.10438,621.52122 468.10438,621.52122 C 474.13249,621.05108 480.44905,620.17426 486.99636,618.89363 C 498.28829,616.68573 510.25803,613.29383 522.68924,608.76119 C 532.10639,605.32744 541.78314,601.26495 551.60409,596.54341 C 572.99097,586.29126 595.0845,573.06832 616.75984,557.11106 C 623.89841,551.86024 630.74856,546.47243 637.32471,540.99376 C 643.35284,535.978 649.13581,530.88434 654.65917,525.73449 C 670.07562,510.8776 681.71367,495.78852 688.30424,482.53959 C 695.16876,468.74269 696.53885,456.94601 690.91452,449.51466 C 687.46779,444.9532 681.69925,442.50877 674.27224,441.93336 C 707.72977,416.82865 727.22752,386.37503 720.2332,367.17442 C 718.01224,361.04678 713.12339,356.47522 706.11462,353.94714 C 702.99965,352.82662 699.49519,352.11708 695.67352,351.79404 C 695.67352,351.79404 685.37669,351.79404 685.37669,351.79404 C 670.99861,352.83092 650.09005,357.97936 632.35179,366.67256"
         sodipodi:nodetypes="cccccssccccscccsccc" />
    </g>
  </g>
</svg>
